<svg width="24" height="24" viewBox="0 0 24 24" fill="none" xmlns="http://www.w3.org/2000/svg">
<path fill-rule="evenodd" clip-rule="evenodd" d="M16.0001 18.13V22H9.00007V19.9103C7.76461 20.2494 6.74534 20.2892 5.87872 20.0864C4.94275 19.8673 4.27343 19.3859 3.75627 18.8687C3.50262 18.6151 3.28323 18.3505 3.09156 18.1104C3.02747 18.0301 2.96834 17.955 2.91214 17.8836L2.91206 17.8835C2.79074 17.7295 2.68302 17.5927 2.56828 17.458C2.23632 17.0683 2.01139 16.9048 1.78777 16.8489C1.31895 16.7317 1.03391 16.2566 1.15112 15.7878C1.26832 15.319 1.74339 15.0339 2.21221 15.1511C2.9886 15.3452 3.51367 15.8692 3.90046 16.3232C4.03792 16.4846 4.1791 16.6638 4.31021 16.8302L4.31022 16.8302L4.31024 16.8303C4.36173 16.8956 4.41166 16.959 4.4592 17.0185C4.63863 17.2433 4.80987 17.4474 4.99371 17.6313C5.35156 17.9891 5.74474 18.2577 6.27752 18.3824C6.82156 18.5097 7.59805 18.5071 8.74856 18.1619C8.8322 18.1368 8.91665 18.1248 8.99971 18.1248C8.96737 17.6546 9.03402 17.1828 9.19538 16.7399C9.35733 16.2954 9.61107 15.89 9.94007 15.55C6.80007 15.16 3.50007 13.97 3.50007 8.55C3.49259 7.14346 4.0302 5.7887 5.00007 4.77C4.54421 3.54851 4.57645 2.19835 5.09007 0.999999C5.09007 0.999999 6.27007 0.649999 9.00007 2.48C11.2921 1.85882 13.7081 1.85882 16.0001 2.48C18.7301 0.649999 19.9101 0.999999 19.9101 0.999999C20.4237 2.19835 20.4559 3.54851 20.0001 4.77C20.9628 5.7812 21.4998 7.12383 21.5001 8.52C21.5001 13.98 18.2001 15.17 15.0601 15.52C15.393 15.8634 15.649 16.2738 15.8111 16.7238C15.9732 17.1738 16.0376 17.6532 16.0001 18.13Z" fill="white"/>
</svg>
