<svg width="24" height="24" viewBox="0 0 24 24" fill="none" xmlns="http://www.w3.org/2000/svg">
<path fill-rule="evenodd" clip-rule="evenodd" d="M10.5021 1.40274C10.9577 1.14024 11.4742 1.00205 12 1.00205C12.5258 1.00205 13.0424 1.14025 13.4979 1.40277L13.5 1.40398L20.5 5.40397C20.9556 5.66702 21.334 6.04525 21.5973 6.50072C21.8606 6.95619 21.9995 7.47289 22 7.99898V16.001C21.9995 16.5271 21.8606 17.0438 21.5973 17.4993C21.334 17.9548 20.9556 18.333 20.5 18.596L20.4961 18.5982L13.5 22.596L13.4982 22.5971C13.0426 22.8597 12.5259 22.998 12 22.998C11.4741 22.998 10.9575 22.8597 10.5019 22.5971L10.5 22.596L3.50386 18.5982L3.5 18.596C3.04439 18.333 2.66597 17.9548 2.40269 17.4993C2.13941 17.0438 2.00054 16.5271 2 16.001V7.99898C2.00054 7.47289 2.13941 6.95619 2.40269 6.50072C2.66597 6.04525 3.04439 5.66702 3.5 5.40398L3.50386 5.40175L10.5021 1.40274Z" fill="white"/>
</svg>
