<svg width="24" height="24" viewBox="0 0 24 24" fill="none" xmlns="http://www.w3.org/2000/svg">
<path d="M10.6605 2.02812L2.9605 7.93815C2.41802 8.35453 2.10001 8.9995 2.10001 9.68335V21.9C2.10001 22.5075 2.59249 23 3.20001 23H7.60001C8.20752 23 8.70001 22.5075 8.70001 21.9V16.4C8.70001 15.7925 9.19249 15.3 9.80001 15.3H14.2C14.8075 15.3 15.3 15.7925 15.3 16.4V21.9C15.3 22.5075 15.7925 23 16.4 23H20.8C21.4075 23 21.9 22.5075 21.9 21.9V9.68335C21.9 8.9995 21.582 8.35453 21.0395 7.93815L13.3395 2.02812C12.5495 1.42172 11.4506 1.42172 10.6605 2.02812Z" fill="white"/>
</svg>
