<svg width="24" height="24" viewBox="0 0 24 24" fill="none" xmlns="http://www.w3.org/2000/svg">
<path fill-rule="evenodd" clip-rule="evenodd" d="M12 1C5.92487 1 1 5.92487 1 12C1 18.0751 5.92487 23 12 23C18.0751 23 23 18.0751 23 12C23 5.92487 18.0751 1 12 1ZM11 7.6C11 7.04771 11.4477 6.6 12 6.6H12.011C12.5633 6.6 13.011 7.04771 13.011 7.6C13.011 8.15228 12.5633 8.6 12.011 8.6H12C11.4477 8.6 11 8.15228 11 7.6ZM12 11.125C12.4832 11.125 12.875 11.5168 12.875 12V16.4C12.875 16.8832 12.4832 17.275 12 17.275C11.5168 17.275 11.125 16.8832 11.125 16.4V12C11.125 11.5168 11.5168 11.125 12 11.125Z" fill="white"/>
</svg>
