<svg width="24" height="24" viewBox="0 0 24 24" fill="none" xmlns="http://www.w3.org/2000/svg">
<path fill-rule="evenodd" clip-rule="evenodd" d="M12 1C5.92487 1 1 5.92487 1 12C1 18.0751 5.92487 23 12 23C18.0751 23 23 18.0751 23 12C23 5.92487 18.0751 1 12 1ZM12.8783 5C12.8783 4.51675 12.4865 4.125 12.0033 4.125C11.52 4.125 11.1283 4.51675 11.1283 5V11C11.1283 11.4832 11.52 11.875 12.0033 11.875C12.4865 11.875 12.8783 11.4832 12.8783 11V5ZM8.37549 8.37195C8.71714 8.03019 8.71705 7.47617 8.37529 7.13451C8.03352 6.79286 7.4795 6.79295 7.13785 7.13472C6.17659 8.09629 5.52203 9.3213 5.25694 10.6549C4.99185 11.9884 5.12813 13.3706 5.64855 14.6267C6.16896 15.8829 7.05015 16.9565 8.18069 17.7118C9.31123 18.4671 10.6404 18.8703 12 18.8703C13.3596 18.8703 14.6888 18.4671 15.8193 17.7118C16.9498 16.9565 17.831 15.8829 18.3515 14.6267C18.8719 13.3706 19.0082 11.9884 18.7431 10.6549C18.478 9.3213 17.8234 8.09629 16.8622 7.13472C16.5205 6.79295 15.9665 6.79286 15.6247 7.13451C15.283 7.47617 15.2829 8.03019 15.6245 8.37195C16.3411 9.08876 16.829 10.002 17.0266 10.9961C17.2243 11.9902 17.1227 13.0205 16.7347 13.9569C16.3468 14.8933 15.6899 15.6936 14.8471 16.2567C14.0044 16.8197 13.0136 17.1203 12 17.1203C10.9864 17.1203 9.99564 16.8197 9.15288 16.2567C8.31011 15.6936 7.65323 14.8933 7.26528 13.9569C6.87733 13.0205 6.77574 11.9902 6.97336 10.9961C7.17097 10.002 7.65891 9.08876 8.37549 8.37195Z" fill="white"/>
</svg>
