<svg id="visual" viewBox="0 0 900 600" width="900" height="600" xmlns="http://www.w3.org/2000/svg" xmlns:xlink="http://www.w3.org/1999/xlink" version="1.1"><rect x="0" y="0" width="900" height="600" fill="#4f46e5"></rect><defs><linearGradient id="grad1_0" x1="33.3%" y1="100%" x2="100%" y2="0%"><stop offset="20%" stop-color="#1e1b4b" stop-opacity="1"></stop><stop offset="80%" stop-color="#1e1b4b" stop-opacity="1"></stop></linearGradient></defs><defs><linearGradient id="grad1_1" x1="33.3%" y1="100%" x2="100%" y2="0%"><stop offset="20%" stop-color="#1e1b4b" stop-opacity="1"></stop><stop offset="80%" stop-color="#24215f" stop-opacity="1"></stop></linearGradient></defs><defs><linearGradient id="grad1_2" x1="33.3%" y1="100%" x2="100%" y2="0%"><stop offset="20%" stop-color="#2a2774" stop-opacity="1"></stop><stop offset="80%" stop-color="#24215f" stop-opacity="1"></stop></linearGradient></defs><defs><linearGradient id="grad1_3" x1="33.3%" y1="100%" x2="100%" y2="0%"><stop offset="20%" stop-color="#2a2774" stop-opacity="1"></stop><stop offset="80%" stop-color="#312d8a" stop-opacity="1"></stop></linearGradient></defs><defs><linearGradient id="grad1_4" x1="33.3%" y1="100%" x2="100%" y2="0%"><stop offset="20%" stop-color="#3834a0" stop-opacity="1"></stop><stop offset="80%" stop-color="#312d8a" stop-opacity="1"></stop></linearGradient></defs><defs><linearGradient id="grad1_5" x1="33.3%" y1="100%" x2="100%" y2="0%"><stop offset="20%" stop-color="#3834a0" stop-opacity="1"></stop><stop offset="80%" stop-color="#3f3ab6" stop-opacity="1"></stop></linearGradient></defs><defs><linearGradient id="grad1_6" x1="33.3%" y1="100%" x2="100%" y2="0%"><stop offset="20%" stop-color="#4740ce" stop-opacity="1"></stop><stop offset="80%" stop-color="#3f3ab6" stop-opacity="1"></stop></linearGradient></defs><defs><linearGradient id="grad1_7" x1="33.3%" y1="100%" x2="100%" y2="0%"><stop offset="20%" stop-color="#4740ce" stop-opacity="1"></stop><stop offset="80%" stop-color="#4f46e5" stop-opacity="1"></stop></linearGradient></defs><defs><linearGradient id="grad2_0" x1="0%" y1="100%" x2="66.7%" y2="0%"><stop offset="20%" stop-color="#1e1b4b" stop-opacity="1"></stop><stop offset="80%" stop-color="#1e1b4b" stop-opacity="1"></stop></linearGradient></defs><defs><linearGradient id="grad2_1" x1="0%" y1="100%" x2="66.7%" y2="0%"><stop offset="20%" stop-color="#24215f" stop-opacity="1"></stop><stop offset="80%" stop-color="#1e1b4b" stop-opacity="1"></stop></linearGradient></defs><defs><linearGradient id="grad2_2" x1="0%" y1="100%" x2="66.7%" y2="0%"><stop offset="20%" stop-color="#24215f" stop-opacity="1"></stop><stop offset="80%" stop-color="#2a2774" stop-opacity="1"></stop></linearGradient></defs><defs><linearGradient id="grad2_3" x1="0%" y1="100%" x2="66.7%" y2="0%"><stop offset="20%" stop-color="#312d8a" stop-opacity="1"></stop><stop offset="80%" stop-color="#2a2774" stop-opacity="1"></stop></linearGradient></defs><defs><linearGradient id="grad2_4" x1="0%" y1="100%" x2="66.7%" y2="0%"><stop offset="20%" stop-color="#312d8a" stop-opacity="1"></stop><stop offset="80%" stop-color="#3834a0" stop-opacity="1"></stop></linearGradient></defs><defs><linearGradient id="grad2_5" x1="0%" y1="100%" x2="66.7%" y2="0%"><stop offset="20%" stop-color="#3f3ab6" stop-opacity="1"></stop><stop offset="80%" stop-color="#3834a0" stop-opacity="1"></stop></linearGradient></defs><defs><linearGradient id="grad2_6" x1="0%" y1="100%" x2="66.7%" y2="0%"><stop offset="20%" stop-color="#3f3ab6" stop-opacity="1"></stop><stop offset="80%" stop-color="#4740ce" stop-opacity="1"></stop></linearGradient></defs><defs><linearGradient id="grad2_7" x1="0%" y1="100%" x2="66.7%" y2="0%"><stop offset="20%" stop-color="#4f46e5" stop-opacity="1"></stop><stop offset="80%" stop-color="#4740ce" stop-opacity="1"></stop></linearGradient></defs><g transform="translate(900, 600)"><path d="M-540.8 0C-523.1 -92 -505.3 -183.9 -462.5 -267C-419.6 -350.1 -351.7 -424.2 -270.4 -468.4C-189.2 -512.5 -94.6 -526.7 0 -540.8L0 0Z" fill="#4b43d9"></path><path d="M-473.2 0C-457.7 -80.5 -442.1 -160.9 -404.7 -233.6C-367.2 -306.3 -307.7 -371.2 -236.6 -409.8C-165.5 -448.5 -82.8 -460.8 0 -473.2L0 0Z" fill="#433dc2"></path><path d="M-405.6 0C-392.3 -69 -379 -138 -346.8 -200.3C-314.7 -262.5 -263.8 -318.2 -202.8 -351.3C-141.9 -384.4 -70.9 -395 0 -405.6L0 0Z" fill="#3b37ab"></path><path d="M-338 0C-326.9 -57.5 -315.8 -115 -289 -166.9C-262.3 -218.8 -219.8 -265.1 -169 -292.7C-118.2 -320.3 -59.1 -329.2 0 -338L0 0Z" fill="#343095"></path><path d="M-270.4 0C-261.5 -46 -252.7 -92 -231.2 -133.5C-209.8 -175 -175.8 -212.1 -135.2 -234.2C-94.6 -256.3 -47.3 -263.3 0 -270.4L0 0Z" fill="#2e2a7f"></path><path d="M-202.8 0C-196.2 -34.5 -189.5 -69 -173.4 -100.1C-157.4 -131.3 -131.9 -159.1 -101.4 -175.6C-70.9 -192.2 -35.5 -197.5 0 -202.8L0 0Z" fill="#27246a"></path><path d="M-135.2 0C-130.8 -23 -126.3 -46 -115.6 -66.8C-104.9 -87.5 -87.9 -106.1 -67.6 -117.1C-47.3 -128.1 -23.6 -131.7 0 -135.2L0 0Z" fill="#211e55"></path><path d="M-67.6 0C-65.4 -11.5 -63.2 -23 -57.8 -33.4C-52.5 -43.8 -44 -53 -33.8 -58.5C-23.6 -64.1 -11.8 -65.8 0 -67.6L0 0Z" fill="#1e1b4b"></path></g><g transform="translate(0, 0)"><path d="M540.8 0C528.1 97 515.3 194 468.4 270.4C421.4 346.8 340.3 402.6 256.5 444.3C172.7 485.9 86.4 513.4 0 540.8L0 0Z" fill="#4b43d9"></path><path d="M473.2 0C462.1 84.9 450.9 169.8 409.8 236.6C368.7 303.5 297.7 352.3 224.4 388.7C151.1 425.2 75.6 449.2 0 473.2L0 0Z" fill="#433dc2"></path><path d="M405.6 0C396.1 72.8 386.5 145.5 351.3 202.8C316.1 260.1 255.2 302 192.4 333.2C129.6 364.4 64.8 385 0 405.6L0 0Z" fill="#3b37ab"></path><path d="M338 0C330.1 60.6 322.1 121.3 292.7 169C263.4 216.8 212.7 251.6 160.3 277.7C108 303.7 54 320.9 0 338L0 0Z" fill="#343095"></path><path d="M270.4 0C264 48.5 257.7 97 234.2 135.2C210.7 173.4 170.1 201.3 128.3 222.1C86.4 243 43.2 256.7 0 270.4L0 0Z" fill="#2e2a7f"></path><path d="M202.8 0C198 36.4 193.2 72.8 175.6 101.4C158 130.1 127.6 151 96.2 166.6C64.8 182.2 32.4 192.5 0 202.8L0 0Z" fill="#27246a"></path><path d="M135.2 0C132 24.3 128.8 48.5 117.1 67.6C105.4 86.7 85.1 100.7 64.1 111.1C43.2 121.5 21.6 128.3 0 135.2L0 0Z" fill="#211e55"></path><path d="M67.6 0C66 12.1 64.4 24.3 58.5 33.8C52.7 43.4 42.5 50.3 32.1 55.5C21.6 60.7 10.8 64.2 0 67.6L0 0Z" fill="#1e1b4b"></path></g></svg>