<svg width="123" height="79" viewBox="0 0 123 79" fill="none" xmlns="http://www.w3.org/2000/svg">
<path fill-rule="evenodd" clip-rule="evenodd" d="M50.5705 17.2001C40.7305 10.3101 31.0005 8.79005 20.9405 11.4201C23.1405 6.13005 26.4505 2.66005 30.3405 1.03005C35.8505 -1.27995 44.8705 0.360051 48.4205 5.30005C50.2405 7.82005 51.1505 11.5601 50.5705 17.2001ZM83.5205 55.32C83.2505 54.2 83.9505 53.0801 85.0705 52.8101C86.1905 52.5401 87.3105 53.2401 87.5805 54.3601C88.1205 56.6301 89.0505 58.39 90.2905 59.66C91.5605 60.95 93.1905 61.78 95.1305 62.16C96.2605 62.38 96.9905 63.4701 96.7705 64.6001C96.5505 65.7301 95.4605 66.4601 94.3305 66.2401C91.5705 65.6901 89.2005 64.48 87.3305 62.57C85.5405 60.75 84.2405 58.35 83.5205 55.32ZM13.5405 55.32C13.2705 54.2 13.9705 53.0801 15.0905 52.8101C16.2105 52.5401 17.3305 53.2401 17.6005 54.3601C18.1405 56.6301 19.0705 58.39 20.3105 59.66C21.5805 60.95 23.2105 61.78 25.1505 62.16C26.2805 62.38 27.0105 63.4701 26.7905 64.6001C26.5705 65.7301 25.4805 66.4601 24.3505 66.2401C21.5905 65.6901 19.2205 64.48 17.3505 62.57C15.5605 60.75 14.2605 58.35 13.5405 55.32ZM61.3005 47.71C64.1005 47.71 66.3705 49.92 66.3705 52.64C66.3705 55.36 64.1005 57.57 61.3005 57.57C58.5005 57.57 56.2305 55.36 56.2305 52.64C56.2305 49.92 58.5005 47.71 61.3005 47.71ZM26.6605 34.57C36.6605 34.57 44.7705 42.4501 44.7705 52.18C44.7705 61.9001 36.6605 69.7901 26.6605 69.7901C16.6605 69.7901 8.55046 61.91 8.55046 52.18C8.55046 42.4501 16.6505 34.57 26.6605 34.57ZM96.6405 34.57C106.64 34.57 114.75 42.4501 114.75 52.18C114.75 61.9001 106.64 69.7901 96.6405 69.7901C86.6405 69.7901 78.5305 61.91 78.5305 52.18C78.5305 42.4501 86.6305 34.57 96.6405 34.57ZM72.3105 17.2001C82.1505 10.3101 91.8805 8.79005 101.93 11.4201C99.7305 6.13005 96.4205 2.66005 92.5305 1.03005C87.0205 -1.27995 78.0005 0.360051 74.4605 5.30005C72.6405 7.82005 71.7305 11.5601 72.3105 17.2001ZM107.57 17.4C104.15 13.88 98.6105 12.2901 90.9405 12.6301C82.2505 13.0601 73.0705 16.6901 70.1205 24.92C67.6505 19.5 55.2305 19.5 52.7705 24.92C49.8205 16.6901 40.6405 13.0501 31.9505 12.6301C24.2805 12.2901 18.7505 13.89 15.3205 17.4C10.5005 23.86 0.960463 40.7401 0.160463 48.9901C-3.09954 82.4701 44.9205 90.87 52.6205 56.3C56.9905 64.05 65.8905 64.05 70.2605 56.3C77.9605 90.8801 125.98 82.4701 122.72 48.9901C121.92 40.7401 112.38 23.86 107.57 17.4Z" fill="white"/>
</svg>
