<svg width="68" height="16" viewBox="0 0 68 16" fill="none" xmlns="http://www.w3.org/2000/svg">
<path d="M0.115057 12L1.20597 5.45455H3.28977L2.19886 12H0.115057ZM2.39489 4.6875C2.09943 4.6875 1.85938 4.58949 1.67472 4.39347C1.49006 4.19744 1.41761 3.96307 1.45739 3.69034C1.49716 3.41477 1.63636 3.1804 1.875 2.98722C2.11364 2.79403 2.37926 2.69744 2.67188 2.69744C2.96733 2.69744 3.20455 2.79403 3.38352 2.98722C3.56534 3.1804 3.63636 3.41477 3.59659 3.69034C3.5625 3.96307 3.42614 4.19744 3.1875 4.39347C2.9517 4.58949 2.6875 4.6875 2.39489 4.6875ZM6.56357 12.1236C5.87322 12.1236 5.30362 11.9815 4.85476 11.6974C4.40874 11.4134 4.09624 11.0185 3.91726 10.5128C3.73828 10.0043 3.70561 9.41619 3.81925 8.74858C3.9272 8.07812 4.15589 7.49006 4.50533 6.98438C4.85476 6.47585 5.30078 6.07955 5.84339 5.79545C6.38601 5.51136 6.99964 5.36932 7.6843 5.36932C8.28942 5.36932 8.79794 5.47869 9.20987 5.69744C9.62464 5.91619 9.92436 6.22585 10.109 6.62642C10.2965 7.02415 10.3519 7.49148 10.2752 8.02841H8.32777C8.34482 7.69602 8.27663 7.43466 8.12322 7.24432C7.96982 7.05114 7.7468 6.95455 7.45419 6.95455C7.20703 6.95455 6.97976 7.02273 6.77237 7.15909C6.56783 7.29261 6.39311 7.49148 6.24822 7.75568C6.10618 8.01705 6.00391 8.34091 5.94141 8.72727C5.87891 9.11364 5.87464 9.44034 5.92862 9.70739C5.98544 9.97159 6.09197 10.1719 6.24822 10.3082C6.40732 10.4418 6.60902 10.5085 6.85334 10.5085C7.04652 10.5085 7.2255 10.4673 7.39027 10.3849C7.55504 10.3026 7.69851 10.1818 7.82067 10.0227C7.94283 9.8608 8.038 9.66477 8.10618 9.43466H10.0494C9.93857 9.97727 9.72408 10.4503 9.4059 10.8537C9.09055 11.2543 8.69141 11.5668 8.20845 11.7912C7.7255 12.0128 7.1772 12.1236 6.56357 12.1236ZM13.7365 12.1236C13.0462 12.1236 12.4766 11.9815 12.0277 11.6974C11.5817 11.4134 11.2678 11.017 11.0859 10.5085C10.9041 10 10.8686 9.40909 10.9794 8.7358C11.0902 8.06534 11.3189 7.47727 11.6655 6.97159C12.0121 6.46591 12.4553 6.07244 12.995 5.79119C13.5348 5.50994 14.147 5.36932 14.8317 5.36932C15.5192 5.36932 16.0859 5.51136 16.532 5.79545C16.9808 6.07955 17.2962 6.47585 17.478 6.98438C17.6626 7.4929 17.6996 8.08523 17.5888 8.76136C17.478 9.43182 17.2479 10.0199 16.8984 10.5256C16.549 11.0284 16.1058 11.4205 15.5689 11.7017C15.032 11.983 14.4212 12.1236 13.7365 12.1236ZM13.9709 10.5511C14.2266 10.5511 14.4553 10.4744 14.657 10.321C14.8615 10.1676 15.0334 9.95312 15.1726 9.67756C15.3118 9.40199 15.4112 9.08239 15.4709 8.71875C15.5305 8.3608 15.5362 8.04688 15.4879 7.77699C15.4425 7.50426 15.3459 7.29261 15.1982 7.14205C15.0504 6.98864 14.8501 6.91193 14.5973 6.91193C14.3416 6.91193 14.1115 6.99006 13.907 7.14631C13.7024 7.29972 13.5305 7.5142 13.3913 7.78977C13.255 8.0625 13.157 8.3821 13.0973 8.74858C13.0376 9.10653 13.0305 9.42045 13.076 9.69034C13.1214 9.96023 13.2195 10.1719 13.37 10.3253C13.5206 10.4759 13.7209 10.5511 13.9709 10.5511ZM20.8338 8.26705L20.2116 12H18.1278L19.2188 5.45455H21.2003L21.0043 6.65625H21.0767C21.2813 6.25568 21.5781 5.94176 21.9673 5.71449C22.3565 5.48438 22.794 5.36932 23.2798 5.36932C23.7372 5.36932 24.1193 5.47159 24.4261 5.67614C24.733 5.88068 24.9503 6.16761 25.0781 6.53693C25.206 6.90341 25.2273 7.33381 25.142 7.82812L24.4432 12H22.3594L22.9858 8.23722C23.0483 7.87642 23.0043 7.59375 22.8537 7.3892C22.706 7.18182 22.4645 7.07812 22.1293 7.07812C21.9105 7.07812 21.7102 7.12642 21.5284 7.22301C21.3494 7.31676 21.1989 7.4517 21.0767 7.62784C20.9574 7.80398 20.8764 8.01705 20.8338 8.26705ZM30.6254 7.66619L30.3654 9.27273H26.3299L26.5898 7.66619H30.6254ZM36.2003 5.45455L35.9403 6.98864H31.7301L31.9901 5.45455H36.2003ZM31.7685 12L32.919 5.12216C33.0014 4.61648 33.1648 4.19744 33.4091 3.86506C33.6534 3.52983 33.9588 3.27983 34.3253 3.11506C34.6918 2.94744 35.0952 2.86364 35.5355 2.86364C35.8281 2.86364 36.0994 2.88636 36.3494 2.93182C36.5994 2.97443 36.7813 3.01278 36.8949 3.04688L36.3196 4.57244C36.2429 4.54687 36.152 4.52557 36.0469 4.50852C35.9446 4.49148 35.8438 4.48295 35.7443 4.48295C35.5028 4.48295 35.3281 4.53693 35.2202 4.64489C35.1122 4.75284 35.0412 4.90057 35.0071 5.08807L33.8523 12H31.7685ZM36.1151 12L37.206 5.45455H39.2898L38.1989 12H36.1151ZM38.3949 4.6875C38.0994 4.6875 37.8594 4.58949 37.6747 4.39347C37.4901 4.19744 37.4176 3.96307 37.4574 3.69034C37.4972 3.41477 37.6364 3.1804 37.875 2.98722C38.1136 2.79403 38.3793 2.69744 38.6719 2.69744C38.9673 2.69744 39.2045 2.79403 39.3835 2.98722C39.5653 3.1804 39.6364 3.41477 39.5966 3.69034C39.5625 3.96307 39.4261 4.19744 39.1875 4.39347C38.9517 4.58949 38.6875 4.6875 38.3949 4.6875ZM42.244 8.26705L41.6218 12H39.538L40.6289 5.45455H42.6104L42.4144 6.65625H42.4869C42.6914 6.25568 42.9883 5.94176 43.3775 5.71449C43.7667 5.48438 44.2042 5.36932 44.69 5.36932C45.1474 5.36932 45.5295 5.47159 45.8363 5.67614C46.1431 5.88068 46.3604 6.16761 46.4883 6.53693C46.6161 6.90341 46.6374 7.33381 46.5522 7.82812L45.8533 12H43.7695L44.396 8.23722C44.4585 7.87642 44.4144 7.59375 44.2638 7.3892C44.1161 7.18182 43.8746 7.07812 43.5394 7.07812C43.3207 7.07812 43.1204 7.12642 42.9386 7.22301C42.7596 7.31676 42.609 7.4517 42.4869 7.62784C42.3675 7.80398 42.2866 8.01705 42.244 8.26705ZM49.5128 12.0938C49.0298 12.0938 48.6108 11.9688 48.2557 11.7188C47.9006 11.4688 47.6463 11.0938 47.4929 10.5938C47.3423 10.0938 47.3281 9.47301 47.4503 8.73153C47.5781 7.96165 47.8054 7.32812 48.1321 6.83097C48.4588 6.33381 48.8395 5.96591 49.2741 5.72727C49.7116 5.48864 50.1577 5.36932 50.6122 5.36932C50.956 5.36932 51.2401 5.42898 51.4645 5.5483C51.6918 5.66477 51.8693 5.81534 51.9972 6C52.125 6.18466 52.2131 6.37642 52.2614 6.57528H52.3082L52.858 3.27273H54.9418L53.4929 12H51.4304L51.6051 10.9389H51.5412C51.419 11.1406 51.2628 11.3295 51.0724 11.5057C50.8821 11.6818 50.6562 11.8239 50.3949 11.9318C50.1364 12.0398 49.8423 12.0938 49.5128 12.0938ZM50.4972 10.4702C50.75 10.4702 50.9787 10.3991 51.1832 10.2571C51.3878 10.1122 51.5597 9.90909 51.6989 9.64773C51.8409 9.38636 51.9403 9.07955 51.9972 8.72727C52.0568 8.36932 52.0597 8.06108 52.0057 7.80256C51.9517 7.54403 51.8452 7.34517 51.6861 7.20597C51.5298 7.06676 51.3239 6.99716 51.0682 6.99716C50.8125 6.99716 50.5838 7.06818 50.3821 7.21023C50.1804 7.35227 50.0128 7.55256 49.8793 7.81108C49.7457 8.0696 49.6491 8.375 49.5895 8.72727C49.5327 9.07955 49.527 9.38636 49.5724 9.64773C49.6207 9.90909 49.7216 10.1122 49.875 10.2571C50.0312 10.3991 50.2386 10.4702 50.4972 10.4702ZM57.8608 12.1236C57.1761 12.1236 56.608 11.9886 56.1562 11.7188C55.7074 11.446 55.392 11.0582 55.2102 10.5554C55.0284 10.0497 54.9957 9.44886 55.1122 8.75284C55.2259 8.0767 55.4574 7.4858 55.8068 6.98011C56.1591 6.47159 56.6023 6.0767 57.1364 5.79545C57.6705 5.51136 58.2656 5.36932 58.9219 5.36932C59.3878 5.36932 59.8011 5.44176 60.1619 5.58665C60.5227 5.73153 60.821 5.94744 61.0568 6.23438C61.2926 6.51847 61.4531 6.8679 61.5384 7.28267C61.6236 7.69744 61.6207 8.1733 61.5298 8.71023L61.4489 9.23011H55.7642L55.956 8.01989H59.706C59.7401 7.7983 59.7216 7.60085 59.6506 7.42756C59.5795 7.25426 59.4645 7.11932 59.3054 7.02273C59.1491 6.9233 58.9574 6.87358 58.7301 6.87358C58.5 6.87358 58.2841 6.92756 58.0824 7.03551C57.8835 7.14062 57.7145 7.28267 57.5753 7.46165C57.4361 7.64062 57.3452 7.84233 57.3026 8.06676L57.0767 9.30682C57.0313 9.58239 57.044 9.81818 57.1151 10.0142C57.1861 10.2102 57.3082 10.3608 57.4815 10.4659C57.6548 10.5682 57.8778 10.6193 58.1506 10.6193C58.3324 10.6193 58.5028 10.5952 58.6619 10.5469C58.821 10.4957 58.9631 10.4205 59.0881 10.321C59.2159 10.2187 59.3196 10.0952 59.3991 9.95028L61.2997 10.0057C61.1463 10.4347 60.9091 10.8082 60.5881 11.1264C60.267 11.4418 59.875 11.6875 59.4119 11.8636C58.9517 12.0369 58.4347 12.1236 57.8608 12.1236ZM62.0487 12L63.1396 5.45455H65.1637L64.9634 6.64773H65.0316C65.2219 6.21591 65.4705 5.89489 65.7773 5.68466C66.0842 5.47159 66.4165 5.36506 66.7745 5.36506C66.8711 5.36506 66.9677 5.37216 67.0643 5.38636C67.1637 5.39773 67.2575 5.41477 67.3455 5.4375L67.0387 7.25284C66.9421 7.21591 66.8157 7.18892 66.6594 7.17188C66.5032 7.15199 66.3612 7.14205 66.2333 7.14205C65.9862 7.14205 65.756 7.19744 65.543 7.30824C65.3327 7.41619 65.1538 7.56818 65.006 7.7642C64.8612 7.95739 64.766 8.18466 64.7205 8.44602L64.1325 12H62.0487Z" fill="white"/>
<path d="M67 15L0 15" stroke="#818CF8"/>
</svg>
