<svg width="800" height="800" viewBox="0 0 800 800" fill="none" xmlns="http://www.w3.org/2000/svg">
<g clip-path="url(#clip0_804_265)">
<path d="M800 400C800 293.156 758.391 192.706 682.842 117.158C607.294 41.6078 506.844 0 400 0C293.155 0 192.706 41.6078 117.156 117.158C41.6078 192.706 0 293.156 0 400C0 506.844 41.6078 607.294 117.158 682.844C192.706 758.392 293.155 800 400 800C506.844 800 607.294 758.392 682.842 682.844C758.391 607.294 800 506.844 800 400ZM737.358 536.766C706.22 507.3 666.347 486.511 622.895 472.041C625.273 448.502 626.505 424.413 626.505 399.994C626.505 375.577 625.273 351.492 622.895 327.955C666.345 313.483 706.217 292.692 737.353 263.223C754.547 305.475 764.047 351.645 764.047 400C764.045 448.35 754.547 494.517 737.358 536.766ZM209.444 399.995C209.444 379.05 210.389 358.386 212.222 338.156C268.772 352.362 328.795 357.575 382.02 358.495V441.506C328.798 442.427 268.775 447.641 212.222 461.842C210.389 441.611 209.444 420.944 209.444 399.995ZM382.019 762.38C339.788 754.586 299.956 719.462 268.323 661.509C267.752 660.462 267.198 659.394 266.633 658.336C303.37 632.291 342.25 617.164 382.017 613.656V762.38H382.019ZM417.973 613.659C457.742 617.166 496.623 632.289 533.358 658.336C532.794 659.395 532.237 660.464 531.666 661.513C500.034 719.463 460.202 754.589 417.972 762.383L417.973 613.659ZM417.973 37.6078C460.203 45.4016 500.036 80.5281 531.667 138.478C532.239 139.525 532.792 140.592 533.358 141.65C496.627 167.695 457.747 182.822 417.975 186.327L417.973 37.6078ZM382.019 186.325C342.25 182.817 303.369 167.689 266.637 141.644C267.2 140.589 267.755 139.522 268.323 138.478C299.956 80.5281 339.788 45.4016 382.019 37.6078V186.325ZM417.973 222.391C463.431 219.014 507.569 202.834 548.983 174.608C564.983 212.684 576.634 255.8 583.458 301.878C536.053 314.356 480.362 321.386 417.973 322.514V222.391ZM561.884 118.83C547.911 93.6563 532.333 72.2063 515.519 54.75C542.091 63.6625 567.297 75.5719 590.753 90.0594C581.338 100.467 571.703 110.052 561.884 118.83ZM238.111 118.825C228.294 110.048 218.661 100.466 209.248 90.0625C232.7 75.5766 257.903 63.6703 284.47 54.7562C267.656 72.2078 252.083 93.6562 238.111 118.825ZM382.019 222.391V322.514C319.63 321.384 263.938 314.356 216.531 301.877C223.356 255.797 235.006 212.681 251.006 174.605C292.425 202.833 336.561 219.013 382.019 222.391ZM382.019 477.484V577.592C336.564 580.97 292.427 597.152 251.008 625.378C235.009 587.303 223.358 544.194 216.534 498.119C263.939 485.641 319.631 478.614 382.019 477.484ZM238.116 681.145C252.089 706.316 267.655 727.788 284.467 745.245C257.892 736.328 232.683 724.419 209.227 709.927C218.65 699.514 228.289 689.927 238.116 681.145ZM561.877 681.139C571.705 689.923 581.348 699.512 590.77 709.927C567.309 724.42 542.098 736.331 515.519 745.248C532.334 727.789 547.903 706.314 561.877 681.139ZM417.973 577.591V477.483C480.361 478.612 536.052 485.639 583.456 498.116C576.631 544.191 564.983 587.3 548.984 625.373C507.566 597.148 463.428 580.969 417.973 577.591ZM417.973 441.506V358.495C471.195 357.577 531.219 352.361 587.769 338.158C589.6 358.386 590.547 379.05 590.547 399.995C590.547 420.945 589.602 441.609 587.769 461.842C531.217 447.639 471.197 442.425 417.973 441.506ZM721.1 228.62C720.983 228.741 720.856 228.845 720.741 228.969C696.6 254.883 661.841 275.789 618.173 291.237C610.258 240.767 596.827 193.581 578.428 152.133C592.908 139.836 606.978 125.972 620.589 110.606C661.947 142.208 696.358 182.448 721.1 228.62ZM179.408 110.608C193.017 125.972 207.087 139.834 221.564 152.128C203.164 193.577 189.733 240.763 181.817 291.234C138.152 275.786 103.395 254.881 79.2578 228.967C79.1422 228.844 79.0172 228.739 78.9 228.62C103.642 182.448 138.053 142.209 179.408 110.608ZM62.6484 263.223C93.7813 292.691 133.653 313.48 177.098 327.952C174.72 351.489 173.489 375.577 173.489 399.992C173.489 424.412 174.72 448.502 177.098 472.042C133.65 486.512 93.7781 507.3 62.6422 536.763C45.4531 494.517 35.9547 448.35 35.9547 400C35.9547 351.645 45.4547 305.477 62.6484 263.223ZM78.8922 571.367C79.0109 571.247 79.1391 571.141 79.2547 571.014C103.395 545.105 138.153 524.205 181.819 508.758C189.734 559.222 203.166 606.405 221.559 647.85C207.078 660.147 193.002 674.011 179.389 689.377C138.039 657.777 103.633 617.537 78.8922 571.367ZM620.608 689.378C606.992 674.011 592.916 660.145 578.433 647.847C596.83 606.402 610.258 559.222 618.172 508.756C661.839 524.2 696.6 545.103 720.742 571.014C720.859 571.141 720.986 571.244 721.108 571.367C696.367 617.539 661.959 657.778 620.608 689.378Z" fill="white"/>
</g>
<defs>
<clipPath id="clip0_804_265">
<rect width="800" height="800" fill="white"/>
</clipPath>
</defs>
</svg>
